<?xml version="1.0" encoding="utf-8"?>
<!-- Generator: Adobe Illustrator 16.0.4, SVG Export Plug-In . SVG Version: 6.00 Build 0)  -->
<!DOCTYPE svg PUBLIC "-//W3C//DTD SVG 1.1//EN" "http://www.w3.org/Graphics/SVG/1.1/DTD/svg11.dtd">
<svg version="1.1" id="Ebene_1" xmlns="http://www.w3.org/2000/svg" xmlns:xlink="http://www.w3.org/1999/xlink" x="0px" y="0px"
	 width="1116.2px" height="58.4px" viewBox="0 0 1116.2 58.4" style="enable-background:new 0 0 1116.2 58.4;" xml:space="preserve"
	>
<style type="text/css">
<![CDATA[
	.st0{fill:#6F7072;stroke:#58595B;stroke-miterlimit:10;}
	.st1{clip-path:url(#SVGID_2_);fill:none;stroke:#FFFFFF;stroke-width:1.127;stroke-miterlimit:3.864;}
	.st2{fill:#333333;}
]]>
</style>
<rect class="st2" width="1116.2" height="58.4"/>
<g>
	<defs>
		<rect id="SVGID_1_" x="528.9" width="58.4" height="58.4"/>
	</defs>
	<clipPath id="SVGID_2_">
		<use xlink:href="#SVGID_1_"  style="overflow:visible;"/>
	</clipPath>
	<path class="st1" d="M557.8,18.9c-0.2,0-0.9-0.1-1.2-0.6c0,0-2-0.1-0.5-2.6h-1.1c-0.7,0-1.4-1.2-0.3-2.5c0,0-1.1-0.9,0.1-1.6
		c0,0,0.9-0.4,1.3,0.9l1-0.3v-0.9l0.7-1l0.7,1v0.9l0.9,0.7l0.4-0.8l0.7,1.7h0.7l0.4,0.6v1.3h-2.1c0,0,1.5,2.6-0.6,2.6
		C559,18.3,558.8,18.9,557.8,18.9z M549,49.9V26.5h18.2v23.4 M546.4,20.2c0-6.4,5.2-11.5,11.5-11.5s11.5,5.2,11.5,11.5 M540.4,20.2
		c0-9.7,7.8-17.5,17.5-17.5c9.7,0,17.5,7.8,17.5,17.5 M575.6,28.7h-6 M575.6,33h-6 M575.6,37.3h-6 M575.6,41.6h-6 M546.5,28.7h-6
		 M546.5,33h-6 M546.5,37.3h-6 M546.5,41.6h-6 M558.1,20.2h21.8l-1.1,4l-20.6,0.1l-20.5-0.1l-0.1,0l-1.1-4H558.1z M546.5,24.2v21.4
		 M540.5,24.2v21.4 M547.2,49.9v-4.3h-7.6v4.3 M558.1,49.9h-21.1V53 M558.1,53h-25.5V56 M558.1,56h-30.3 M558.1,26.5v23.4
		 M569.6,24.2v21.4 M575.6,24.2v21.4 M568.9,49.9v-4.3h7.6v4.3 M558.1,49.9h21.1V53 M558.1,53h25.5V56 M558.1,56h30.3"/>
</g>
<line class="st0" x1="515.2" y1="31.7" x2="0" y2="31.7"/>
<line class="st0" x1="515.2" y1="38.3" x2="0" y2="38.3"/>
<line class="st0" x1="1116.2" y1="31.7" x2="601" y2="31.7"/>
<line class="st0" x1="1116.2" y1="38.3" x2="601" y2="38.3"/>
</svg>
